<?xml version="1.0" encoding="utf-8"?>
<!-- Generator: Adobe Illustrator 25.4.1, SVG Export Plug-In . SVG Version: 6.00 Build 0)  -->
<svg version="1.1" id="Capa_1" xmlns="http://www.w3.org/2000/svg" xmlns:xlink="http://www.w3.org/1999/xlink" x="0px" y="0px"
	 viewBox="0 0 1840.56 746.39" style="enable-background:new 0 0 1840.56 746.39;" xml:space="preserve">
<style type="text/css">
	.st0{fill:#001421;}
</style>
<g>
	<g>
		<path class="st0" d="M711.08,214.13c26.58,0,44.94,18.36,44.94,44.94V399.6c0,26.59-18.36,44.94-44.94,44.94h-76.28
			c-26.59,0-44.94-18.36-44.94-44.94V259.08c0-26.59,18.36-44.94,44.94-44.94H711.08z M710.45,267.94c0-6.97-3.8-10.77-10.77-10.77
			H646.2c-6.96,0-10.76,3.8-10.76,10.77v122.8c0,6.96,3.8,10.76,10.76,10.76h53.49c6.97,0,10.77-3.8,10.77-10.76V267.94z"/>
		<path class="st0" d="M919.66,443.28l-36.71-84.5h-36.71v84.5h-45.58V215.4h116.16c26.59,0,44.94,18.36,44.94,44.94v53.49
			c0,21.52-12.03,37.67-31.02,43.04l37.98,86.4H919.66z M916.19,269.21c0-6.97-3.8-10.77-10.76-10.77h-59.19v57.92h59.19
			c6.96,0,10.76-3.8,10.76-10.77V269.21z"/>
		<path class="st0" d="M1006.4,215.4h45.58v227.88h-45.58V215.4z"/>
		<path class="st0" d="M1215.93,267.94c0-6.97-3.8-10.77-10.77-10.77h-52.22c-6.96,0-10.76,3.8-10.76,10.77v122.8
			c0,6.96,3.8,10.76,10.76,10.76h52.22c6.97,0,10.77-3.8,10.77-10.76v-33.87h-41.78v-41.15h87.35v83.87
			c0,26.59-18.36,44.94-44.94,44.94h-75.01c-26.59,0-44.94-18.36-44.94-44.94V259.08c0-26.59,18.36-44.94,44.94-44.94h75.01
			c26.58,0,44.94,18.36,44.94,44.94v29.75h-45.57V267.94z"/>
		<path class="st0" d="M1454.26,215.4v43.04h-103.49v46.84h83.87v43.04h-83.87v51.9h103.49v43.04h-149.07V215.4H1454.26z"/>
		<path class="st0" d="M1670.13,215.4v227.88h-49.06l-83.87-155.4v155.4h-42.73V215.4h49.06l83.88,155.4V215.4H1670.13z"/>
	</g>
	<g>
		<polygon class="st0" points="343.75,325.03 355.87,343.27 377.33,338.94 373,360.4 391.24,372.52 373,384.64 377.33,406.1 
			355.87,401.77 343.75,420.01 331.63,401.77 310.17,406.1 314.5,384.64 296.26,372.52 314.5,360.4 310.17,338.94 331.63,343.27 		
			"/>
		<polygon class="st0" points="282.61,260.39 343.75,291.08 404.89,260.39 404.89,207.68 343.75,238.37 282.61,207.68 		"/>
		<polygon class="st0" points="282.61,484.65 343.75,453.96 404.89,484.65 404.89,537.36 343.75,506.67 282.61,537.36 		"/>
		<polygon class="st0" points="216.08,369.4 273.22,331.8 277.21,263.51 231.56,237.15 227.57,305.45 170.43,343.05 		"/>
		<polygon class="st0" points="410.29,481.53 414.28,413.24 471.42,375.64 517.07,401.99 459.93,439.6 455.94,507.89 		"/>
		<polygon class="st0" points="277.21,481.53 273.22,413.24 216.08,375.64 170.43,401.99 227.57,439.6 231.56,507.89 		"/>
		<polygon class="st0" points="471.42,369.4 414.28,331.8 410.29,263.51 455.94,237.15 459.93,305.45 517.07,343.05 		"/>
	</g>
	<g>
		<g>
			<path class="st0" d="M605.95,538.21h-6.69v-33.68h23.98v5.8h-17.29v7.91h13.57v5.81h-13.57V538.21z"/>
			<path class="st0" d="M657.77,504.03c10.42,0,17.84,7.25,17.84,17.41c0,10.17-7.42,17.26-17.84,17.26
				c-10.36,0-17.81-7.09-17.81-17.26C639.96,511.25,647.41,504.03,657.77,504.03z M657.79,532.48c6.55,0,10.94-4.46,10.94-11.06
				c0-6.55-4.38-11.14-10.94-11.14c-6.5,0-10.93,4.59-10.93,11.14C646.86,528.02,651.3,532.48,657.79,532.48z"/>
			<path class="st0" d="M719.66,524.9h-9.05v-5.66h15.7v16.44c-3.43,1.89-8.39,3.03-12.62,3.03c-12.2,0-19.82-7.21-19.82-17.34
				c0-10.96,8.76-17.31,20.12-17.31c3.82,0,7.59,0.77,10.89,2.29l-0.53,5.98c-1.49-0.67-5.38-2.16-9.99-2.16
				c-7.81,0-13.54,3.9-13.54,11.21c0,6.83,5.06,11.23,12.59,11.23c2.04,0,4.74-0.3,6.25-0.99V524.9z"/>
			<path class="st0" d="M762.9,504.03c10.42,0,17.84,7.25,17.84,17.41c0,10.17-7.42,17.26-17.84,17.26
				c-10.36,0-17.81-7.09-17.81-17.26C745.09,511.25,752.53,504.03,762.9,504.03z M762.92,532.48c6.55,0,10.94-4.46,10.94-11.06
				c0-6.55-4.38-11.14-10.94-11.14c-6.5,0-10.93,4.59-10.93,11.14C751.99,528.02,756.42,532.48,762.92,532.48z"/>
			<path class="st0" d="M807.42,538.21h-6.69v-33.68h6.08l19.37,23.11v-23.11h6.7v33.68h-6.18l-19.28-22.86V538.21z"/>
			<path class="st0" d="M879.93,538.21h-25.32v-33.68h24.95v5.8h-18.26v7.76h15.98v5.81h-15.98v8.53h18.63V538.21z"/>
			<path class="st0" d="M914.38,528.29h-7.79v9.92h-6.69v-33.68h15.63c6.79,0,12.3,4.32,12.3,11.9c0,4.89-2.73,8.73-6.57,10.59
				l8.92,11.16h-8.08L914.38,528.29z M906.59,510.33v12.18h8.17c3.57,0,6.18-2.45,6.18-6.05c0-3.91-2.66-6.13-6.18-6.13H906.59z"/>
			<path class="st0" d="M965.04,504.03c10.42,0,17.84,7.25,17.84,17.41c0,10.17-7.42,17.26-17.84,17.26
				c-10.36,0-17.81-7.09-17.81-17.26C947.24,511.25,954.68,504.03,965.04,504.03z M965.07,532.48c6.55,0,10.94-4.46,10.94-11.06
				c0-6.55-4.38-11.14-10.94-11.14c-6.5,0-10.93,4.59-10.93,11.14C954.14,528.02,958.57,532.48,965.07,532.48z"/>
			<path class="st0" d="M1024.8,506.15l-0.57,5.95c-1.76-1.04-6.13-2.16-9.75-2.16c-3.65,0-6.25,1.12-6.25,3.9
				c0,2.8,2.38,3.3,4.69,3.99l4.86,1.44c5.55,1.64,8.73,4.02,8.73,9.18c0,5.98-5.08,10.26-12.77,10.26
				c-4.76,0-10.14-1.18-12.48-2.48l0.55-5.98c1.66,1.04,7.14,2.51,11.33,2.51c3.54,0,6.37-1.24,6.37-4c0-2.13-1.27-3.08-4.12-3.84
				l-5.33-1.44c-4.29-1.17-8.81-3.5-8.81-9.1c0-6.23,4.89-10.35,12.75-10.35C1018.72,504.03,1022.12,504.95,1024.8,506.15z"/>
			<path class="st0" d="M1087.39,504.53c10.86,0,17.02,6.45,17.02,16.81c0,10.44-6.27,16.87-17.02,16.87h-14.51v-33.68H1087.39z
				 M1097.53,521.34c0-7.04-3.32-11.04-10.86-11.04h-7.1v22.12h7.1C1094.29,532.43,1097.53,528.34,1097.53,521.34z"/>
			<path class="st0" d="M1149.82,538.21h-25.32v-33.68h24.95v5.8h-18.26v7.76h15.98v5.81h-15.98v8.53h18.63V538.21z"/>
			<path class="st0" d="M1226.23,538.21h-6.67v-14.29h-16.42v14.29h-6.69v-33.68h6.69v13.61h16.42v-13.61h6.67V538.21z"/>
			<path class="st0" d="M1254.66,538.21h-6.69v-33.68h6.69V538.21z"/>
			<path class="st0" d="M1301.66,538.21h-25.32v-33.68h24.95v5.8h-18.26v7.76h15.98v5.81h-15.98v8.53h18.63V538.21z"/>
			<path class="st0" d="M1336.1,528.29h-7.79v9.92h-6.69v-33.68h15.63c6.79,0,12.3,4.32,12.3,11.9c0,4.89-2.73,8.73-6.57,10.59
				l8.92,11.16h-8.08L1336.1,528.29z M1328.31,510.33v12.18h8.17c3.57,0,6.18-2.45,6.18-6.05c0-3.91-2.66-6.13-6.18-6.13H1328.31z"
				/>
			<path class="st0" d="M1385.53,528.29h-7.79v9.92h-6.69v-33.68h15.63c6.79,0,12.3,4.32,12.3,11.9c0,4.89-2.73,8.73-6.57,10.59
				l8.92,11.16h-8.08L1385.53,528.29z M1377.75,510.33v12.18h8.17c3.57,0,6.18-2.45,6.18-6.05c0-3.91-2.66-6.13-6.18-6.13H1377.75z"
				/>
			<path class="st0" d="M1436.2,504.03c10.42,0,17.84,7.25,17.84,17.41c0,10.17-7.42,17.26-17.84,17.26
				c-10.36,0-17.81-7.09-17.81-17.26C1418.4,511.25,1425.84,504.03,1436.2,504.03z M1436.23,532.48c6.55,0,10.94-4.46,10.94-11.06
				c0-6.55-4.38-11.14-10.94-11.14c-6.5,0-10.93,4.59-10.93,11.14C1425.3,528.02,1429.73,532.48,1436.23,532.48z"/>
			<path class="st0" d="M1505.05,510.41h-7.17v-5.87h13.87v33.68h-6.69V510.41z"/>
			<path class="st0" d="M1532.06,521.49c0-9.27,4.07-17.46,14.29-17.46c10.37,0,14.29,8.54,14.29,17.46
				c0,9.28-4.11,17.21-14.29,17.21C1536.21,538.7,1532.06,530.77,1532.06,521.49z M1546.35,532.71c5.53,0,7.66-5.58,7.66-11.34
				c0-5.97-2.15-11.33-7.66-11.33c-5.5,0-7.66,5.56-7.66,11.33C1538.69,527.32,1540.87,532.71,1546.35,532.71z"/>
			<path class="st0" d="M1579.48,521.49c0-9.27,4.07-17.46,14.29-17.46c10.37,0,14.29,8.54,14.29,17.46
				c0,9.28-4.11,17.21-14.29,17.21C1583.63,538.7,1579.48,530.77,1579.48,521.49z M1593.77,532.71c5.53,0,7.66-5.58,7.66-11.34
				c0-5.97-2.15-11.33-7.66-11.33c-5.5,0-7.66,5.56-7.66,11.33C1586.11,527.32,1588.29,532.71,1593.77,532.71z"/>
			<path class="st0" d="M1636.62,504.03c5.46,0,9.5,4.05,9.5,9.38c0,5.26-4.04,9.3-9.5,9.3c-5.45,0-9.47-4.04-9.47-9.3
				C1627.15,508.08,1631.16,504.03,1636.62,504.03z M1636.62,517.97c2.63,0,4.52-2.01,4.52-4.56c0-2.6-1.88-4.64-4.52-4.64
				c-2.62,0-4.53,2.04-4.53,4.64C1632.08,515.96,1633.99,517.97,1636.62,517.97z M1637.36,537.57l18.2-33.04h3.85v0.59l-18.16,33.09
				h-3.89V537.57z M1660.1,520.04c5.49,0,9.52,4.04,9.52,9.37c0,5.26-4.04,9.3-9.52,9.3c-5.43,0-9.47-4.04-9.47-9.3
				C1650.63,524.07,1654.68,520.04,1660.1,520.04z M1660.1,533.97c2.66,0,4.52-2.01,4.52-4.56c0-2.6-1.86-4.63-4.52-4.63
				c-2.6,0-4.52,2.03-4.52,4.63C1655.59,531.96,1657.5,533.97,1660.1,533.97z"/>
		</g>
	</g>
</g>
</svg>
