<?xml version="1.0" encoding="utf-8"?>
<!-- Generator: Adobe Illustrator 25.4.1, SVG Export Plug-In . SVG Version: 6.00 Build 0)  -->
<svg version="1.1" id="Capa_1" xmlns="http://www.w3.org/2000/svg" xmlns:xlink="http://www.w3.org/1999/xlink" x="0px" y="0px"
	 viewBox="0 0 1000 1000" style="enable-background:new 0 0 1000 1000;" xml:space="preserve">
<style type="text/css">
	.st0{fill:#001421;}
</style>
<g>
	<g>
		<g>
			<polygon class="st0" points="500,402.22 524.95,439.77 569.14,430.86 560.23,475.05 597.78,500 560.23,524.95 569.14,569.14 
				524.95,560.23 500,597.78 475.05,560.23 430.86,569.14 439.77,524.95 402.22,500 439.77,475.05 430.86,430.86 475.05,439.77 			
				"/>
			<polygon class="st0" points="374.12,269.12 500,332.31 625.89,269.12 625.89,160.59 500,223.77 374.12,160.59 			"/>
			<polygon class="st0" points="374.12,730.88 500,667.69 625.89,730.88 625.89,839.41 500,776.23 374.12,839.41 			"/>
			<polygon class="st0" points="237.11,493.58 354.78,416.16 363,275.54 269,221.27 260.78,361.89 143.12,439.31 			"/>
			<polygon class="st0" points="637,724.46 645.22,583.85 762.89,506.42 856.88,560.69 739.22,638.11 731,778.73 			"/>
			<polygon class="st0" points="363,724.46 354.78,583.85 237.11,506.42 143.12,560.69 260.78,638.11 269,778.73 			"/>
			<polygon class="st0" points="762.89,493.58 645.22,416.16 637,275.54 731,221.27 739.22,361.89 856.88,439.31 			"/>
		</g>
	</g>
</g>
</svg>
