<?xml version="1.0" encoding="utf-8"?>
<!-- Generator: Adobe Illustrator 25.4.1, SVG Export Plug-In . SVG Version: 6.00 Build 0)  -->
<svg version="1.1" id="Capa_1" xmlns="http://www.w3.org/2000/svg" xmlns:xlink="http://www.w3.org/1999/xlink" x="0px" y="0px"
	 viewBox="0 0 2000 563.19" style="enable-background:new 0 0 2000 563.19;" xml:space="preserve">
<style type="text/css">
	.st0{fill:#001421;}
</style>
<g>
	<g>
		<g>
			<path class="st0" d="M795.01,171.7c24.63,0,41.63,17,41.63,41.63V343.5c0,24.63-17,41.63-41.63,41.63h-70.66
				c-24.63,0-41.63-17-41.63-41.63V213.33c0-24.63,17-41.63,41.63-41.63H795.01z M794.42,221.54c0-6.45-3.52-9.97-9.97-9.97h-49.55
				c-6.45,0-9.97,3.52-9.97,9.97v113.75c0,6.45,3.52,9.97,9.97,9.97h49.55c6.45,0,9.97-3.52,9.97-9.97V221.54z"/>
			<path class="st0" d="M988.21,383.96l-34.01-78.28h-34.01v78.28h-42.22V172.87h107.6c24.63,0,41.63,17,41.63,41.63v49.55
				c0,19.94-11.14,34.89-28.73,39.87l35.18,80.04H988.21z M984.98,222.71c0-6.45-3.52-9.97-9.97-9.97h-54.83v53.65h54.83
				c6.45,0,9.97-3.52,9.97-9.97V222.71z"/>
			<path class="st0" d="M1068.54,172.87h42.22v211.09h-42.22V172.87z"/>
			<path class="st0" d="M1262.62,221.54c0-6.45-3.52-9.97-9.97-9.97h-48.38c-6.45,0-9.97,3.52-9.97,9.97v113.75
				c0,6.45,3.52,9.97,9.97,9.97h48.38c6.45,0,9.97-3.52,9.97-9.97v-31.37h-38.7v-38.11h80.92v77.69c0,24.63-17,41.63-41.63,41.63
				h-69.48c-24.63,0-41.63-17-41.63-41.63V213.33c0-24.63,17-41.63,41.63-41.63h69.48c24.63,0,41.63,17,41.63,41.63v27.56h-42.22
				V221.54z"/>
			<path class="st0" d="M1483.39,172.87v39.87h-95.87v43.39h77.7V296h-77.7v48.08h95.87v39.87H1345.3V172.87H1483.39z"/>
			<path class="st0" d="M1683.33,172.87v211.09h-45.44l-77.69-143.95v143.95h-39.58V172.87h45.44l77.69,143.95V172.87H1683.33z"/>
		</g>
		<g>
			<polygon class="st0" points="455.67,243.51 465.39,258.14 482.6,254.66 479.13,271.88 493.76,281.59 479.13,291.31 482.6,308.52 
				465.39,305.05 455.67,319.68 445.95,305.05 428.74,308.52 432.21,291.31 417.59,281.59 432.21,271.88 428.74,254.66 
				445.95,258.14 			"/>
			<polygon class="st0" points="406.64,191.67 455.67,216.28 504.7,191.67 504.7,149.39 455.67,174 406.64,149.39 			"/>
			<polygon class="st0" points="406.64,371.52 455.67,346.91 504.7,371.52 504.7,413.79 455.67,389.18 406.64,413.79 			"/>
			<polygon class="st0" points="353.28,279.09 399.11,248.94 402.31,194.17 365.7,173.03 362.5,227.8 316.67,257.96 			"/>
			<polygon class="st0" points="509.03,369.02 512.23,314.25 558.06,284.09 594.68,305.23 548.85,335.39 545.64,390.16 			"/>
			<polygon class="st0" points="402.31,369.02 399.11,314.25 353.28,284.09 316.67,305.23 362.5,335.39 365.7,390.16 			"/>
			<polygon class="st0" points="558.06,279.09 512.23,248.94 509.03,194.17 545.64,173.03 548.85,227.8 594.67,257.96 			"/>
		</g>
	</g>
</g>
</svg>
